<svg xmlns="http://www.w3.org/2000/svg" version="1.1" xmlns:xlink="http://www.w3.org/1999/xlink" xmlns:svgjs="http://svgjs.dev/svgjs" width="1500" height="1500" viewBox="0 0 1500 1500"><rect width="1500" height="1500" fill="#ffffff"></rect><g transform="matrix(0.6666666666666666,0,0,0.6666666666666666,249.39393939393938,558.1672127099479)"><svg viewBox="0 0 396 152" data-background-color="#ffffff" preserveAspectRatio="xMidYMid meet" height="575" width="1500" xmlns="http://www.w3.org/2000/svg" xmlns:xlink="http://www.w3.org/1999/xlink"><g id="tight-bounds" transform="matrix(1,0,0,1,0.2400000000000091,0.06587043849026486)"><svg viewBox="0 0 395.52 151.86825912301947" height="151.86825912301947" width="395.52"><g><svg viewBox="0 0 630.4451852841939 242.07274666666663" height="151.86825912301947" width="395.52"><g transform="matrix(1,0,0,1,234.9251852841939,74.80399238095237)"><svg viewBox="0 0 395.52 92.4647619047619" height="92.4647619047619" width="395.52"><g id="textblocktransform"><svg viewBox="0 0 395.52 92.4647619047619" height="92.4647619047619" width="395.52" id="textblock"><g><svg viewBox="0 0 395.52 92.4647619047619" height="92.4647619047619" width="395.52"><g transform="matrix(1,0,0,1,0,0)"><svg width="395.52" viewBox="2.86 -36.55 158.41 37.04" height="92.4647619047619" data-palette-color="#202046"><path d="M30.86-35.01L30.86-13.99Q30.86-11.08 29.76-8.53 28.66-5.98 26.76-4.09 24.85-2.2 22.3-1.1 19.75 0 16.85 0L16.85 0Q13.94 0 11.39-1.1 8.84-2.2 6.95-4.09 5.05-5.98 3.96-8.53 2.86-11.08 2.86-13.99L2.86-13.99 2.86-35.01 9.84-35.01 9.84-13.99Q9.84-12.55 10.39-11.28 10.94-10.01 11.89-9.06 12.84-8.11 14.12-7.56 15.41-7.01 16.85-7.01L16.85-7.01Q18.29-7.01 19.57-7.56 20.85-8.11 21.8-9.06 22.75-10.01 23.3-11.28 23.85-12.55 23.85-13.99L23.85-13.99 23.85-35.01 30.86-35.01ZM50.95-28L43.94-28 43.94-13.99 50.95-13.99Q52.39-13.99 53.66-14.54 54.93-15.09 55.88-16.04 56.83-16.99 57.38-18.27 57.93-19.56 57.93-21L57.93-21Q57.93-22.44 57.38-23.72 56.83-25 55.88-25.95 54.93-26.9 53.66-27.45 52.39-28 50.95-28L50.95-28ZM43.94-7.01L43.94 0 36.94 0 36.94-35.01 50.95-35.01Q52.88-35.01 54.66-34.51 56.44-34.01 57.99-33.09 59.54-32.18 60.83-30.9 62.11-29.61 63.02-28.05 63.94-26.49 64.44-24.71 64.94-22.92 64.94-21L64.94-21Q64.94-18.12 63.84-15.56 62.74-13.01 60.84-11.11 58.93-9.2 56.38-8.11 53.83-7.01 50.95-7.01L50.95-7.01 43.94-7.01ZM75.04-36.55L75.04 0 68.33 0 68.33-36.55 75.04-36.55ZM105.44-26.1L105.44 0 103.83 0 101.24-3.59Q100.29-2.73 99.22-1.99 98.16-1.25 96.99-0.7 95.82-0.15 94.58 0.17 93.35 0.49 92.08 0.49L92.08 0.49Q89.32 0.49 86.89-0.44 84.47-1.37 82.65-3.14 80.83-4.91 79.78-7.47 78.73-10.03 78.73-13.31L78.73-13.31Q78.73-16.36 79.78-18.91 80.83-21.46 82.65-23.29 84.47-25.12 86.89-26.14 89.32-27.15 92.08-27.15L92.08-27.15Q93.35-27.15 94.6-26.83 95.84-26.51 97.01-25.95 98.19-25.39 99.25-24.63 100.31-23.88 101.24-23L101.24-23 103.83-26.1 105.44-26.1ZM98.72-13.31L98.72-13.31Q98.72-14.67 98.2-15.95 97.67-17.24 96.77-18.23 95.87-19.21 94.66-19.81 93.45-20.41 92.08-20.41L92.08-20.41Q90.72-20.41 89.51-19.95 88.3-19.48 87.41-18.58 86.52-17.68 86-16.35 85.49-15.01 85.49-13.31L85.49-13.31Q85.49-11.6 86-10.27 86.52-8.94 87.41-8.03 88.3-7.13 89.51-6.67 90.72-6.2 92.08-6.2L92.08-6.2Q93.45-6.2 94.66-6.8 95.87-7.4 96.77-8.39 97.67-9.38 98.2-10.66 98.72-11.94 98.72-13.31ZM117.18-14.94L117.18 0 110.51 0 110.51-26.15 112.12-26.15 114.32-23.61Q115.93-25.07 117.97-25.87 120.01-26.66 122.23-26.66L122.23-26.66Q124.62-26.66 126.75-25.74 128.87-24.83 130.46-23.23 132.05-21.63 132.96-19.49 133.88-17.36 133.88-14.94L133.88-14.94 133.88 0 127.21 0 127.21-14.94Q127.21-15.97 126.82-16.88 126.43-17.8 125.75-18.48 125.06-19.17 124.16-19.56 123.26-19.95 122.23-19.95L122.23-19.95Q121.18-19.95 120.25-19.56 119.33-19.17 118.64-18.48 117.96-17.8 117.57-16.88 117.18-15.97 117.18-14.94L117.18-14.94ZM152.97 0L152.97 0 137.73 0 137.73-6.64 152.97-6.64Q153.65-6.64 154.14-7.13 154.63-7.62 154.63-8.3L154.63-8.3Q154.63-9.01 154.14-9.23 153.65-9.45 152.97-9.45L152.97-9.45 146.03-9.45Q144.3-9.45 142.79-10.11 141.27-10.77 140.15-11.9 139.03-13.04 138.38-14.55 137.73-16.06 137.73-17.8L137.73-17.8Q137.73-19.53 138.38-21.04 139.03-22.56 140.15-23.68 141.27-24.8 142.79-25.45 144.3-26.1 146.03-26.1L146.03-26.1 159.53-26.1 159.53-19.46 146.03-19.46Q145.35-19.46 144.86-18.97 144.37-18.48 144.37-17.8L144.37-17.8Q144.37-17.09 144.86-16.59 145.35-16.09 146.03-16.09L146.03-16.09 152.97-16.09Q154.68-16.09 156.19-15.52 157.7-14.94 158.83-13.92 159.95-12.89 160.61-11.45 161.27-10.01 161.27-8.3L161.27-8.3Q161.27-6.57 160.61-5.07 159.95-3.56 158.83-2.43 157.7-1.29 156.19-0.65 154.68 0 152.97 0Z" opacity="1" transform="matrix(1,0,0,1,0,0)" fill="#202046" class="wordmark-text-0" data-fill-palette-color="primary" id="text-0"></path></svg></g></svg></g></svg></g></svg></g><g><svg viewBox="0 0 213.09647415276532 242.07274666666663" height="242.07274666666663" width="213.09647415276532"><g><svg xmlns="http://www.w3.org/2000/svg" xmlns:xlink="http://www.w3.org/1999/xlink" version="1.1" x="0" y="0" viewBox="5.040542664194227 1.3000000000000007 54.05037821542377 61.40000000000002" style="enable-background:new 0 0 64 64;" xml:space="preserve" height="242.07274666666663" width="213.09647415276532" class="icon-icon-0" data-fill-palette-color="accent" id="icon-0"><g fill="#fe633d" data-fill-palette-color="accent"><g fill="#fe633d" data-fill-palette-color="accent"><g fill="#fe633d" data-fill-palette-color="accent"><path d="M47 30.7c-0.5-0.4-1-0.2-1.2-0.1l-2.1 1-1.1-2.1c-0.2-0.3-0.4-0.5-0.7-0.6-0.5-0.2-1 0-1.3 0.5-0.2 0.3-0.2 0.7 0 1.1l0.2 0.5c0.1 0.3 0.3 0.6 0.4 0.9l0.4 0.7c-0.1 0-0.1 0-0.1 0.1l-0.8 0.4c-0.3 0.2-0.7 0.4-1.1 0.5-0.3 0.2-0.7 0.4-0.7 0.9 0 0.3 0.1 0.7 0.3 0.9 0.3 0.3 0.8 0.4 1.3 0.2 0.3-0.1 0.5-0.2 0.8-0.4l1.4-0.7 1.1 2.1c0.2 0.4 0.6 0.7 1 0.7 0.2 0 0.3 0 0.4-0.1 0.3-0.1 0.5-0.3 0.6-0.6 0.1-0.3 0.1-0.7-0.1-1-0.1-0.2-0.2-0.4-0.3-0.6l-0.8-1.5 0.6-0.2c0.5-0.2 1.1-0.5 1.6-0.8 0.4-0.2 0.6-0.5 0.6-0.9l0 0C47.4 31.2 47.3 30.9 47 30.7z" fill="#fe633d" data-fill-palette-color="accent"></path><path d="M40.5 20.4c0.3-0.1 0.5-0.2 0.8-0.4l1.4-0.7 1.1 2.1c0.2 0.4 0.6 0.7 1 0.7 0.2 0 0.3 0 0.4-0.1 0.3-0.1 0.5-0.3 0.6-0.6 0.1-0.3 0.1-0.7-0.1-1-0.1-0.2-0.2-0.4-0.3-0.6l-0.8-1.6 0.5-0.2c0.5-0.2 1.1-0.5 1.6-0.8 0.4-0.2 0.6-0.5 0.6-0.9l0 0c0-0.3-0.1-0.7-0.4-0.9-0.5-0.4-1-0.2-1.2-0.1l-2.1 1-1.1-2.1c-0.2-0.3-0.4-0.5-0.7-0.6-0.5-0.2-1 0-1.3 0.5-0.2 0.3-0.2 0.7 0 1.1l0.2 0.5c0.1 0.3 0.3 0.6 0.4 0.9l0.4 0.7-0.9 0.5c-0.3 0.2-0.7 0.4-1.1 0.5-0.3 0.2-0.7 0.4-0.7 0.9 0 0.3 0.1 0.7 0.3 0.9C39.5 20.5 40 20.6 40.5 20.4z" fill="#fe633d" data-fill-palette-color="accent"></path><path d="M27 22.9c-0.5-0.4-1-0.2-1.2-0.1l-2.1 1-1.1-2.1c-0.2-0.3-0.4-0.5-0.7-0.6-0.5-0.2-1 0-1.3 0.5-0.2 0.3-0.2 0.7 0 1.1l0.2 0.5c0.1 0.3 0.3 0.6 0.4 0.9l0.4 0.7-0.9 0.5c-0.3 0.2-0.7 0.4-1.1 0.5C19.4 26 19 26.2 19 26.7c0 0.3 0.1 0.7 0.3 0.9 0.3 0.3 0.8 0.4 1.3 0.2l2.2-1 1.1 2.1c0.2 0.4 0.6 0.7 1 0.7 0.2 0 0.3 0 0.4-0.1 0.3-0.1 0.5-0.3 0.6-0.6 0.1-0.3 0.1-0.7-0.1-1-0.1-0.2-0.2-0.4-0.2-0.5l-0.8-1.6 0.5-0.2c0.5-0.2 1.1-0.5 1.6-0.8 0.4-0.2 0.6-0.5 0.6-0.9l0 0C27.5 23.4 27.3 23.1 27 22.9z" fill="#fe633d" data-fill-palette-color="accent"></path><path d="M36.3 24.1c-0.2-3.7-1.5-7.3-3.6-9.7l1.6 0.1 0.1 0c0.6 0 1.1-0.4 1.1-1 0.1-0.6-0.4-1.2-1-1.2L30 11.8c-0.6 0-1.2 0.4-1.2 1l-0.4 4.5c-0.1 0.6 0.4 1.2 1 1.2l0.1 0c0.6 0 1.1-0.4 1.1-1l0.2-2c1.8 2.1 3 5.2 3.2 8.7 0.3 4.3-1 8.2-3.4 10.4-0.5 0.4-0.5 1.1-0.1 1.6 0.2 0.2 0.5 0.4 0.8 0.4 0.3 0 0.6-0.1 0.8-0.3C35.1 33.6 36.6 29 36.3 24.1L36.3 24.1zM31.7 35.9L31.7 35.9 31.7 35.9 31.7 35.9z" fill="#fe633d" data-fill-palette-color="accent"></path></g></g><path d="M52.7 9.8c-2.6-2.7-5.8-4.8-9.4-6.3-3.4-1.4-7.2-2.2-10.8-2.2-4.8 0-9.3 1.2-13 3.6-4.1 2.6-7.2 6.5-8.9 11.3-0.6 1.6-1 3.4-1.2 5.3-0.1 1.3 0.1 2.4 0.4 3.3 0.3 1 0.4 1.5 0.2 2.1-0.4 1.3-1.3 2.4-2.3 3.6-0.7 0.8-1.4 1.7-2 2.7-0.7 1.1-0.8 2.4-0.5 3.7 0.4 1.4 1.6 2.7 3 3.4 0.1 0 0.2 0.1 0.3 0.1-0.1 0.8-0.1 1.4 0 2l0.1 0.4c0.2 1.2 0.4 2.4 1 3.8 0.1 0.4 0.1 0.4 0.1 0.9-0.1 0.4-0.2 1-0.1 1.7 0 1.7 0.7 3.3 2 4.6 1.1 1.2 2.7 1.9 4.5 2.2 1.2 0.2 2.4 0.3 3.5 0.4 0.5 0 0.9 0.1 1.3 0.1 0.6 0.1 1.2 0.1 1.7 0.2l0.2 0.9c0.1 0.5 0.2 1.1 0.3 1.7 0.4 2 2.1 3.4 4 3.4 0.3 0 0.5 0 0.8-0.1l19.5-3.9c1.9-0.4 3.3-2 3.3-3.9 0.1-3.4 0.6-9.8 2.9-14.3 0.5-0.9 1-1.9 1.5-2.8 1.7-3.1 3.5-6.3 3.9-10.2C59.6 21.1 57.2 14.4 52.7 9.8zM13.3 44.9c-0.4-0.9-0.5-1.8-0.7-2.9l-0.1-0.4c-0.1-0.3 0.1-0.9 0.2-1.3 0.1-0.2 0.1-0.4 0.2-0.7 0.1-0.3 0.3-1 0-1.8-0.4-0.8-1.2-1.3-2.1-1.3l-0.2 0c0 0-0.1 0-0.1 0-0.2 0-0.3-0.1-0.5-0.2-0.5-0.2-0.8-0.6-0.8-0.8 0-0.1 0-0.2 0.1-0.3 0.5-0.8 1-1.5 1.7-2.3 1.1-1.4 2.4-2.9 3-4.9 0.6-1.7 0.2-3.2-0.1-4.4-0.2-0.7-0.3-1.3-0.3-1.8 0.2-1.6 0.5-3 1-4.3C17.2 10 24 5.5 32.5 5.5c6.4 0 12.9 2.7 17.3 7.2 3.7 3.8 5.6 9.2 5.1 14.5-0.3 3-1.8 5.7-3.4 8.5-0.5 0.9-1.1 1.9-1.6 3-2.6 5.1-3.2 12.2-3.3 16L27 58.5c-0.1-0.5-0.2-1-0.3-1.5l0-0.2c-0.1-0.6-0.2-1.1-0.3-1.5-0.3-1.6-1.4-2.6-3-2.7-0.8-0.1-1.6-0.1-2.3-0.2-0.4 0-0.9-0.1-1.3-0.1-1.1-0.1-2.2-0.2-3.2-0.4-0.9-0.1-1.7-0.5-2.2-1-0.5-0.6-0.8-1.2-0.8-1.8 0-0.4 0-0.6 0.1-1C13.7 47.3 13.9 46.4 13.3 44.9z" fill="#fe633d" data-fill-palette-color="accent"></path></g></svg></g></svg></g></svg></g><defs></defs></svg><rect width="395.52" height="151.86825912301947" fill="none" stroke="none" visibility="hidden"></rect></g></svg></g></svg>